<svg width="939" height="147" viewBox="0 0 939 147" fill="none" xmlns="http://www.w3.org/2000/svg">
<g clip-path="url(#clip0_38_21)">
<rect width="938.716" height="146.44" fill="white"/>
<path d="M118.385 74.8801C106.857 74.8827 95.7997 79.4537 87.6352 87.5919C79.4707 95.7302 74.8642 106.772 74.8245 118.3C74.8301 118.343 74.8301 118.387 74.8245 118.43C74.8245 118.862 74.6528 119.277 74.3471 119.583C74.0414 119.888 73.6268 120.06 73.1945 120.06C72.7622 120.06 72.3476 119.888 72.0419 119.583C71.7362 119.277 71.5645 118.862 71.5645 118.43C71.5619 106.903 66.9906 95.8473 58.8521 87.6844C50.7135 79.5215 39.6713 74.9172 28.1445 74.8801H28.0245C27.5922 74.8801 27.1776 74.7084 26.8719 74.4027C26.5662 74.097 26.3945 73.6824 26.3945 73.2501C26.3945 72.8178 26.5662 72.4032 26.8719 72.0975C27.1776 71.7919 27.5922 71.6201 28.0245 71.6201C33.7466 71.6201 39.4126 70.4928 44.6988 68.3024C49.9851 66.1121 54.788 62.9017 58.8332 58.8546C62.8783 54.8076 66.0865 50.0032 68.2744 44.716C70.4624 39.4287 71.5871 33.7622 71.5845 28.0401C71.5845 27.6078 71.7562 27.1932 72.0619 26.8875C72.3676 26.5819 72.7822 26.4101 73.2145 26.4101C73.6468 26.4101 74.0614 26.5819 74.3671 26.8875C74.6728 27.1932 74.8445 27.6078 74.8445 28.0401C74.8445 28.0901 74.8445 28.1501 74.8445 28.2001C74.8705 36.3899 77.2058 44.4063 81.5823 51.3288C85.9588 58.2512 92.199 63.7989 99.5862 67.3348C106.973 70.8707 115.208 72.2515 123.345 71.3184C131.481 70.3854 139.189 67.1765 145.585 62.0601C142.772 43.8253 133.18 27.3244 118.725 15.8577C104.271 4.39107 86.02 -1.19589 67.6236 0.214316C49.2272 1.62452 32.0414 9.92792 19.5035 23.4637C6.96555 36.9995 0 54.7697 0 73.2201C0 91.6705 6.96555 109.441 19.5035 122.977C32.0414 136.512 49.2272 144.816 67.6236 146.226C86.02 147.636 104.271 142.049 118.725 130.583C133.18 119.116 142.772 102.615 145.585 84.3801C137.873 78.1949 128.28 74.8292 118.395 74.8401" fill="#FA4616"/>
<path d="M227.845 94.4701C215.995 94.4701 207.235 85.4701 207.235 73.7301C207.235 61.9901 215.855 52.8401 227.705 52.8401C235.185 52.8401 241.395 56.5101 244.215 62.0101L257.485 54.5301C252.405 44.3701 241.115 37.7401 227.705 37.7401C207.235 37.7401 191.705 53.2601 191.705 73.7401C191.705 94.2201 207.375 109.58 227.835 109.58C242.235 109.58 254.365 102.1 259.595 90.6701L245.595 84.3201C242.495 90.6701 235.865 94.4801 227.815 94.4801" fill="black"/>
<path d="M299.685 94.4701C288.255 94.4701 279.505 85.4701 279.505 73.7301C279.505 61.9901 288.255 52.8401 299.685 52.8401C311.115 52.8401 319.985 61.8701 319.985 73.7301C319.985 85.5901 311.095 94.4701 299.665 94.4701M299.665 37.7401C279.485 37.7401 263.955 53.2601 263.955 73.7401C263.955 94.2201 279.485 109.58 299.665 109.58C319.845 109.58 335.515 94.2001 335.515 73.7401C335.515 53.2801 319.845 37.7401 299.665 37.7401Z" fill="black"/>
<path d="M346.514 52.8501V108.16H362.184V55.4801C362.184 55.1168 362.328 54.7683 362.585 54.5114C362.842 54.2544 363.191 54.1101 363.554 54.1101H386.034V39.1101H360.214C356.581 39.1101 353.096 40.5535 350.527 43.1227C347.958 45.692 346.514 49.1766 346.514 52.8101" fill="black"/>
<path d="M433.174 37.7402C428.895 37.6581 424.678 38.7643 420.99 40.9357C417.302 43.1071 414.288 46.2588 412.284 50.0402V39.1502H396.614V108.15H412.284V70.7602C412.284 59.8902 419.054 52.8402 429.364 52.8402C439.364 52.8402 446.014 59.8902 446.014 70.7602V108.16H461.824V68.7902C461.824 49.5902 450.824 37.7902 433.174 37.7902" fill="black"/>
<path d="M488.894 65.4002C491.294 56.7902 498.064 52.0402 507.384 52.0402C516.704 52.0402 523.614 57.6902 524.884 65.4502L488.894 65.4002ZM508.224 37.7402C503.539 37.6839 498.889 38.5652 494.55 40.3323C490.21 42.0994 486.267 44.7166 482.954 48.0299C479.641 51.3433 477.023 55.2858 475.256 59.6256C473.489 63.9654 472.608 68.6148 472.664 73.3002C472.664 93.9102 488.614 109.57 508.514 109.57C522.764 109.57 534.334 103.93 539.414 94.5702L526.854 86.5702C523.614 91.9302 516.554 95.3202 508.794 95.3202C498.064 95.3202 490.724 89.1102 488.614 78.8102H540.834C541.225 76.098 541.412 73.3604 541.394 70.6202C541.394 52.1302 526.854 37.7402 508.224 37.7402Z" fill="black"/>
<path d="M552.375 52.8501V108.16H568.044V55.4801C568.044 55.1168 568.189 54.7683 568.446 54.5114C568.703 54.2545 569.051 54.1101 569.414 54.1101H591.894V39.1101H566.084C564.285 39.1088 562.502 39.4622 560.839 40.1501C559.175 40.838 557.664 41.8469 556.391 43.1192C555.117 44.3915 554.107 45.9022 553.418 47.565C552.729 49.2278 552.375 51.0102 552.375 52.8101" fill="black"/>
<path d="M612.364 58.2002C612.364 53.6902 616.174 50.8602 621.954 50.8602C627.734 50.8602 637.624 53.4002 643.124 58.2002L649.334 46.0402C643.124 40.4002 633.104 37.7202 623.504 37.7202C607.704 37.7202 596.694 46.6102 596.694 59.4502C596.694 85.0002 635.084 76.1102 635.084 88.8102C635.084 93.1802 630.564 96.4302 623.654 96.4302C615.884 96.4302 605.724 92.9002 600.364 87.8202L594.154 99.6802C600.924 105.74 612.924 109.68 624.074 109.68C639.884 109.68 651.024 100.68 651.024 88.2202C651.024 62.6802 612.364 69.8802 612.364 58.1602" fill="black"/>
<path d="M747.084 94.4701C735.654 94.4701 726.904 85.4701 726.904 73.7301C726.904 61.9901 735.654 52.8401 747.084 52.8401C758.514 52.8401 767.414 61.8401 767.414 73.7301C767.414 85.6201 758.514 94.4701 747.084 94.4701ZM747.084 37.7401C726.904 37.7401 711.384 53.2601 711.384 73.7401C711.384 94.2201 726.904 109.58 747.084 109.58C767.264 109.58 782.984 94.1901 782.984 73.7301C782.984 53.2701 767.324 37.7301 747.134 37.7301" fill="black"/>
<path d="M830.475 37.7401C826.196 37.6592 821.979 38.7658 818.291 40.9371C814.603 43.1084 811.589 46.2594 809.585 50.0401V39.1501H793.915V108.15H809.585V70.7601C809.585 59.8901 816.355 52.8401 826.665 52.8401C836.665 52.8401 843.315 59.8901 843.315 70.7601V108.16H859.125V68.7901C859.125 49.5901 848.125 37.7901 830.475 37.7901" fill="black"/>
<path d="M886.195 65.4002C888.595 56.7902 895.365 52.0402 904.685 52.0402C914.005 52.0402 920.915 57.6902 922.185 65.4502L886.195 65.4002ZM938.695 70.6202C938.695 52.1302 924.155 37.7402 905.535 37.7402C900.851 37.6866 896.203 38.5698 891.865 40.338C887.527 42.1062 883.586 44.7237 880.274 48.0366C876.962 51.3495 874.346 55.2911 872.579 59.6296C870.812 63.9681 869.93 68.616 869.985 73.3002C869.985 93.9102 885.935 109.57 905.835 109.57C920.085 109.57 931.665 103.93 936.745 94.5702L924.175 86.5702C920.935 91.9302 913.875 95.3202 906.115 95.3202C895.385 95.3202 888.055 89.1102 885.935 78.8102H938.155C938.546 76.098 938.733 73.3604 938.715 70.6202" fill="black"/>
<path d="M685.074 91.2302V54.1102H703.134V39.1102H685.074V20.6602H669.404V39.1502H656.134V54.1502H669.404V94.5702C669.404 96.3693 669.759 98.1508 670.447 99.8129C671.136 101.475 672.145 102.985 673.417 104.258C674.689 105.53 676.199 106.539 677.862 107.227C679.524 107.916 681.305 108.27 683.104 108.27H705.984V92.6002H686.444C686.081 92.6002 685.732 92.4558 685.476 92.1989C685.219 91.942 685.074 91.5935 685.074 91.2302Z" fill="black"/>
</g>
<defs>
<clipPath id="clip0_38_21">
<rect width="938.716" height="146.44" fill="white"/>
</clipPath>
</defs>
</svg>
